<svg width="16" height="16" viewBox="0 0 16 16" fill="none" xmlns="http://www.w3.org/2000/svg">
<path fill-rule="evenodd" clip-rule="evenodd" d="M0.751714 0.502857C1.0729 0.181274 1.50864 0.000400119 1.96314 0L8.34829 0C8.80279 0.000400119 9.23853 0.181274 9.55971 0.502857L13.4614 4.40457C13.783 4.72575 13.9639 5.1615 13.9643 5.616V14.2857C13.9643 14.7404 13.7837 15.1764 13.4622 15.4979C13.1407 15.8194 12.7047 16 12.25 16H1.96429C1.50963 16 1.07359 15.8194 0.752103 15.4979C0.430612 15.1764 0.25 14.7404 0.25 14.2857V1.71429C0.25 1.25943 0.429429 0.822857 0.751714 0.502857ZM6.09114 5.17371C6.18292 5.23909 6.2609 5.32192 6.32063 5.41746C6.38036 5.51301 6.42067 5.61939 6.43925 5.73053C6.45782 5.84167 6.4543 5.95538 6.42889 6.06515C6.40348 6.17493 6.35667 6.27862 6.29114 6.37029L4.69457 8.60571C4.62217 8.70686 4.52863 8.79104 4.42043 8.8524C4.31224 8.91377 4.19198 8.95085 4.06801 8.96107C3.94405 8.97129 3.81934 8.95441 3.70256 8.91159C3.58577 8.86878 3.4797 8.80106 3.39171 8.71314L2.434 7.75543C2.28259 7.59294 2.20017 7.37803 2.20409 7.15597C2.208 6.93392 2.29796 6.72205 2.455 6.565C2.61205 6.40796 2.82392 6.318 3.04597 6.31409C3.26803 6.31017 3.48294 6.39259 3.64543 6.544L3.88771 6.78514L4.89571 5.37486C5.02773 5.18983 5.22784 5.06482 5.45201 5.02732C5.67619 4.98981 5.90609 5.04174 6.09114 5.17371ZM7.17686 7.28457C7.17686 7.05724 7.26716 6.83923 7.42791 6.67848C7.58865 6.51773 7.80667 6.42743 8.034 6.42743H10.8911C11.1185 6.42743 11.3365 6.51773 11.4972 6.67848C11.658 6.83923 11.7483 7.05724 11.7483 7.28457C11.7483 7.5119 11.658 7.72992 11.4972 7.89066C11.3365 8.05141 11.1185 8.14171 10.8911 8.14171H8.034C7.80667 8.14171 7.58865 8.05141 7.42791 7.89066C7.26716 7.72992 7.17686 7.5119 7.17686 7.28457ZM7.17686 11.8206C7.17686 11.5932 7.26716 11.3752 7.42791 11.2145C7.58865 11.0537 7.80667 10.9634 8.034 10.9634H10.8911C11.1185 10.9634 11.3365 11.0537 11.4972 11.2145C11.658 11.3752 11.7483 11.5932 11.7483 11.8206C11.7483 12.0479 11.658 12.2659 11.4972 12.4267C11.3365 12.5874 11.1185 12.6777 10.8911 12.6777H8.034C7.80667 12.6777 7.58865 12.5874 7.42791 12.4267C7.26716 12.2659 7.17686 12.0479 7.17686 11.8206ZM6.29114 10.9771C6.35971 10.8858 6.40933 10.7816 6.43707 10.6708C6.46481 10.56 6.47012 10.4447 6.45269 10.3318C6.43525 10.2189 6.39543 10.1107 6.33555 10.0134C6.27567 9.91608 6.19695 9.83174 6.10401 9.76531C6.01107 9.69889 5.90579 9.65171 5.79435 9.62655C5.68292 9.60139 5.56758 9.59876 5.45512 9.61881C5.34265 9.63887 5.23533 9.6812 5.13946 9.74333C5.04359 9.80545 4.96111 9.88611 4.89686 9.98057L3.88771 11.392L3.64543 11.1497C3.48294 10.9983 3.26803 10.9159 3.04597 10.9198C2.82392 10.9237 2.61205 11.0137 2.455 11.1707C2.29796 11.3278 2.208 11.5396 2.20409 11.7617C2.20017 11.9837 2.28259 12.1987 2.434 12.3611L3.39171 13.3189C3.4797 13.4068 3.58577 13.4745 3.70256 13.5173C3.81934 13.5601 3.94405 13.577 4.06801 13.5668C4.19198 13.5566 4.31224 13.5195 4.42043 13.4581C4.52863 13.3968 4.62217 13.3126 4.69457 13.2114L6.29114 10.9771Z" fill="url(#paint0_linear_85_2)"/>
<defs>
<linearGradient id="paint0_linear_85_2" x1="7.10714" y1="0" x2="7.10714" y2="16" gradientUnits="userSpaceOnUse">
<stop offset="0.3" stop-color="#9C2CF3"/>
<stop offset="0.8" stop-color="#3A49F9"/>
</linearGradient>
</defs>
</svg>