<svg width="16" height="16" viewBox="0 0 16 16" fill="none" xmlns="http://www.w3.org/2000/svg">
<path d="M14.5367 6.6945H13.9997V6.66683H7.99967V9.3335H11.7673C11.2177 10.8858 9.74067 12.0002 7.99967 12.0002C5.79067 12.0002 3.99967 10.2092 3.99967 8.00016C3.99967 5.79116 5.79067 4.00016 7.99967 4.00016C9.01934 4.00016 9.94701 4.38483 10.6533 5.01316L12.539 3.1275C11.3483 2.01783 9.75567 1.3335 7.99967 1.3335C4.31801 1.3335 1.33301 4.3185 1.33301 8.00016C1.33301 11.6818 4.31801 14.6668 7.99967 14.6668C11.6813 14.6668 14.6663 11.6818 14.6663 8.00016C14.6663 7.55316 14.6203 7.11683 14.5367 6.6945Z" fill="#FFC107"/>
<path d="M2.10156 4.89716L4.2919 6.5035C4.88456 5.03616 6.3199 4.00016 7.99956 4.00016C9.01923 4.00016 9.9469 4.38483 10.6532 5.01316L12.5389 3.1275C11.3482 2.01783 9.75556 1.3335 7.99956 1.3335C5.4389 1.3335 3.21823 2.77916 2.10156 4.89716Z" fill="#FF3D00"/>
<path d="M8.00043 14.6669C9.72243 14.6669 11.2871 14.0079 12.4701 12.9362L10.4068 11.1902C9.71506 11.7166 8.86962 12.0012 8.00043 12.0002C6.26643 12.0002 4.7941 10.8946 4.23943 9.35156L2.06543 11.0266C3.16876 13.1856 5.40943 14.6669 8.00043 14.6669Z" fill="#4CAF50"/>
<path d="M14.537 6.69417H14V6.6665H8V9.33317H11.7677C11.5047 10.072 11.0311 10.7176 10.4053 11.1902L10.4063 11.1895L12.4697 12.9355C12.3237 13.0682 14.6667 11.3332 14.6667 7.99984C14.6667 7.55284 14.6207 7.1165 14.537 6.69417Z" fill="#1976D2"/>
</svg>